<svg width="973" height="553" viewBox="0 0 973 553" fill="none" xmlns="http://www.w3.org/2000/svg">
<path d="M972.737 455.7V553H798.438V0H972.038V93.1H911.838V226.9H969.237V316.5H911.838V455.7H972.737Z" fill="white"/>
<path d="M767.938 553H617.5C617.5 478.5 614 385 612.538 280H609.038V553H494.238V0H609.038V194.6H612.538C619.538 133.7 611.9 70 624.5 0H756.038C721.738 170.1 715.438 200.9 708.438 229.6C716.138 263.2 723.838 299.6 767.938 553Z" fill="white"/>
<path d="M460 0V553H323V0H460Z" fill="white"/>
<path d="M266 0V553H130.5L96.6 286.3H87L119.5 553H0V0H121.8L168.7 280H179.5L134.5 0H266Z" fill="white"/>
</svg>
